<svg viewBox="0 0 80.53 58.27" xmlns="http://www.w3.org/2000/svg"><g fill="#1c76da"><path d="m.54 9.36c0-.64.38-.97 1.13-.97h9.15c6.56 0 11.42.74 14.6 2.21 2.72 1.28 5 3.17 6.83 5.69 1.84 2.52 2.75 5.44 2.75 8.77 0 4.27-1.48 8-4.43 11.21s-6.34 5.17-10.18 5.9c-1.18.2-2.67.3-4.47.3h-14.24c-.79 0-1.18-.49-1.18-1.46 0-.2.02-.36.05-.48s.11-.22.22-.3.23-.15.35-.2.3-.08.54-.1c.25-.02.47-.03.67-.05s.5-.02.89-.02.74-.02 1.04-.05c.56-.03.93-.19 1.11-.47s.27-.73.27-1.36v-25.63c0-.82-.22-1.33-.67-1.53s-1.33-.31-2.65-.35h-.84c-.63 0-.94-.37-.94-1.11zm14.67 30.63c4.03 0 7.53-1.21 10.5-3.63s4.46-5.74 4.46-9.96c0-2.5-.53-4.92-1.58-7.24s-2.56-4.21-4.51-5.66c-2.87-2.08-6.39-3.12-10.55-3.12-1.42 0-2.34.1-2.75.3s-.62.63-.62 1.29v25.76c0 .63.13 1.08.4 1.36.26.28.74.49 1.44.62 1.09.2 2.16.3 3.22.3z"/><path d="m44.28 8c1.06 0 2.04-.02 2.94-.05s1.6-.07 2.12-.1c.51-.03.82-.05.92-.05.57 0 .85.36.85 1.08 0 .26-.02.48-.05.66s-.1.33-.2.44-.19.2-.28.28c-.08.07-.24.14-.46.19s-.41.08-.58.08-.43.02-.79.05c-.35.03-.67.07-.94.1-.91.07-1.37.64-1.37 1.73v27.17c0 1.99-.4 3.88-1.21 5.68-.81 1.79-1.86 3.34-3.15 4.63-.3.3-.72.67-1.28 1.12s-1.35.93-2.35 1.44c-1.01.51-1.87.77-2.6.77-1.16 0-2.12-.41-2.9-1.24s-1.16-1.72-1.16-2.67c0-.69.21-1.28.64-1.76s.97-.72 1.63-.72c.56 0 1.06.17 1.51.5.45.34.79.71 1.04 1.13s.57.79.97 1.13.84.5 1.34.5c1.16 0 2.01-1.04 2.58-3.11.3-1.09.45-2.17.45-3.26v-31.42c0-.23-.03-.43-.08-.59s-.1-.3-.15-.42-.16-.21-.33-.3c-.17-.08-.31-.15-.43-.2s-.32-.09-.61-.12-.52-.06-.71-.07c-.19-.02-.48-.04-.88-.08s-.74-.07-1.01-.1c-.77-.11-1.16-.52-1.16-1.22 0-.97.38-1.46 1.15-1.46.03 0 .17 0 .4.02s.55.03.95.05.85.04 1.35.07 1.07.06 1.72.07c.65.02 1.29.03 1.92.03h.2z"/><path d="m56.66 7.85c1.02 0 2.5-.11 4.43-.32s3.39-.32 4.38-.32c3.66 0 6.45.68 8.4 2.05 2.07 1.54 3.11 3.5 3.11 5.91 0 1.56-.45 3.04-1.34 4.44s-2.05 2.54-3.46 3.44l-.15.13s.07.08.2.14c1.98.36 3.65 1.34 5 2.96s2.03 3.51 2.03 5.67-.64 4.25-1.93 5.96-2.79 2.95-4.5 3.71c-1.68.76-3.71 1.15-6.08 1.15-.79 0-1.96-.05-3.48-.15s-2.68-.15-3.48-.15c-.56 0-1.46.02-2.71.05s-2.26.05-3.05.05h-.1c-.2 0-.35-.01-.47-.04-.11-.03-.23-.14-.34-.32-.12-.18-.17-.44-.17-.78 0-.37.12-.6.36-.69s.82-.29 1.74-.58c.29-.03.51-.07.67-.1.22-.03.39-.07.5-.12s.22-.15.33-.3.17-.35.17-.62v-27.61c0-.62-.17-1.03-.5-1.21s-.92-.3-1.78-.37h-.24c-.57 0-.85-.4-.85-1.21 0-.55.3-.82.89-.82.03 0 .15 0 .35.02s.49.02.87.02h1.21zm15.8 8.42c0-.7-.12-1.42-.34-2.14-.23-.72-.61-1.45-1.13-2.19-.53-.74-1.31-1.34-2.34-1.81-1.04-.47-2.24-.7-3.62-.7-1.87 0-3.06.2-3.55.6-.17.13-.25.35-.25.65v11.11c0 .44.18.65.54.65h2.91c3.55 0 5.9-1.09 7.05-3.27.49-1.01.74-1.98.74-2.92zm-7.35 23.97c2.67 0 4.94-.71 6.81-2.13 1.88-1.42 2.81-3.39 2.81-5.91 0-1.67-.49-3.21-1.46-4.64-.97-1.42-2.48-2.35-4.52-2.77-1.09-.23-2.5-.34-4.24-.34h-2.57c-.49 0-.74.26-.74.78v12.95c0 .36.02.64.07.83.05.2.19.4.42.61s.58.35 1.04.42c.99.13 1.77.2 2.37.2z"/></g></svg>